<svg width="24" height="25" viewBox="0 0 24 25" fill="none" xmlns="http://www.w3.org/2000/svg">
<path d="M23.0306 8.53061L20.0306 11.5306C19.8898 11.6713 19.699 11.7504 19.5 11.7504C19.3009 11.7504 19.1101 11.6713 18.9693 11.5306C18.8286 11.3899 18.7495 11.199 18.7495 11C18.7495 10.801 18.8286 10.6101 18.9693 10.4694L20.6896 8.74999H19.5C15.8746 8.74999 15.1321 10.5312 14.1918 12.7887C13.2234 15.1137 12.1246 17.75 7.49995 17.75H7.4062C7.22366 18.457 6.78953 19.0731 6.1852 19.4829C5.58086 19.8927 4.84781 20.0681 4.12345 19.9761C3.39909 19.8841 2.73315 19.531 2.25046 18.9832C1.76777 18.4353 1.50146 17.7302 1.50146 17C1.50146 16.2698 1.76777 15.5647 2.25046 15.0168C2.73315 14.4689 3.39909 14.1159 4.12345 14.0239C4.84781 13.9319 5.58086 14.1072 6.1852 14.517C6.78953 14.9268 7.22366 15.543 7.4062 16.25H7.49995C11.1253 16.25 11.8678 14.4687 12.8081 12.2112C13.7812 9.88624 14.8753 7.24999 19.5 7.24999H20.6896L18.9693 5.53061C18.8286 5.38988 18.7495 5.19901 18.7495 4.99999C18.7495 4.80097 18.8286 4.6101 18.9693 4.46936C19.1101 4.32863 19.3009 4.24957 19.5 4.24957C19.699 4.24957 19.8898 4.32863 20.0306 4.46936L23.0306 7.46936C23.1003 7.53902 23.1556 7.62174 23.1934 7.71278C23.2311 7.80383 23.2505 7.90143 23.2505 7.99999C23.2505 8.09855 23.2311 8.19615 23.1934 8.2872C23.1556 8.37824 23.1003 8.46096 23.0306 8.53061Z" fill="black"/>
<path d="M23.0306 8.53061L20.0306 11.5306C19.8898 11.6713 19.699 11.7504 19.5 11.7504C19.3009 11.7504 19.1101 11.6713 18.9693 11.5306C18.8286 11.3899 18.7495 11.199 18.7495 11C18.7495 10.801 18.8286 10.6101 18.9693 10.4694L20.6896 8.74999H19.5C15.8746 8.74999 15.1321 10.5312 14.1918 12.7887C13.2234 15.1137 12.1246 17.75 7.49995 17.75H7.4062C7.22366 18.457 6.78953 19.0731 6.1852 19.4829C5.58086 19.8927 4.84781 20.0681 4.12345 19.9761C3.39909 19.8841 2.73315 19.531 2.25046 18.9832C1.76777 18.4353 1.50146 17.7302 1.50146 17C1.50146 16.2698 1.76777 15.5647 2.25046 15.0168C2.73315 14.4689 3.39909 14.1159 4.12345 14.0239C4.84781 13.9319 5.58086 14.1072 6.1852 14.517C6.78953 14.9268 7.22366 15.543 7.4062 16.25H7.49995C11.1253 16.25 11.8678 14.4687 12.8081 12.2112C13.7812 9.88624 14.8753 7.24999 19.5 7.24999H20.6896L18.9693 5.53061C18.8286 5.38988 18.7495 5.19901 18.7495 4.99999C18.7495 4.80097 18.8286 4.6101 18.9693 4.46936C19.1101 4.32863 19.3009 4.24957 19.5 4.24957C19.699 4.24957 19.8898 4.32863 20.0306 4.46936L23.0306 7.46936C23.1003 7.53902 23.1556 7.62174 23.1934 7.71278C23.2311 7.80383 23.2505 7.90143 23.2505 7.99999C23.2505 8.09855 23.2311 8.19615 23.1934 8.2872C23.1556 8.37824 23.1003 8.46096 23.0306 8.53061Z" fill="url(#paint0_linear_92_17)"/>
<defs>
<linearGradient id="paint0_linear_92_17" x1="1.50146" y1="12.1248" x2="23.2505" y2="12.1248" gradientUnits="userSpaceOnUse">
<stop offset="0.105769" stop-color="#37DEA1" stop-opacity="0.51"/>
<stop offset="0.322115" stop-color="#47D1D6" stop-opacity="0.78"/>
</linearGradient>
</defs>
</svg>
