<svg width="23" height="23" viewBox="0 0 23 23" fill="none" xmlns="http://www.w3.org/2000/svg">
<g clip-path="url(#clip0_398_2353)">
<path d="M23 11.5C23 10.0933 22.747 8.7458 22.2847 7.50003L11.5 7L0.715291 7.49998C0.253045 8.7458 0 10.0933 0 11.5C0 12.9067 0.253045 14.2542 0.715291 15.5L11.5 16L22.2847 15.5C22.747 14.2542 23 12.9067 23 11.5Z" fill="#D80027"/>
<path d="M11.4996 23C16.4441 23 20.6594 19.8792 22.2843 15.5H0.714844C2.33971 19.8792 6.55496 23 11.4996 23Z" fill="#6DA544"/>
<path d="M0.714844 7.50002H22.2843C20.6594 3.12081 16.4441 0 11.4996 0C6.55496 0 2.33971 3.12081 0.714844 7.50002Z" fill="#338AF3"/>
<path d="M11.75 14.75C9.95508 14.75 8.49997 13.2949 8.49997 11.5C8.49997 9.70513 9.95508 8.25002 11.75 8.25002C12.3096 8.25002 12.8362 8.39152 13.296 8.64066C12.5747 7.93534 11.5884 7.5 10.5 7.5C8.29081 7.5 6.5 9.29086 6.5 11.5C6.5 13.7091 8.29086 15.5 10.5 15.5C11.5884 15.5 12.5747 15.0646 13.296 14.3593C12.8362 14.6085 12.3096 14.75 11.75 14.75Z" fill="#F0F0F0"/>
<path d="M14.25 9.25L14.6805 10.4607L15.841 9.90896L15.2893 11.0695L16.5 11.5L15.2893 11.9305L15.841 13.091L14.6805 12.5393L14.25 13.75L13.8196 12.5393L12.659 13.091L13.2107 11.9305L12 11.5L13.2107 11.0695L12.659 9.90896L13.8196 10.4607L14.25 9.25Z" fill="#F0F0F0"/>
</g>
<defs>
<clipPath id="clip0_398_2353">
<rect width="23" height="23" fill="white"/>
</clipPath>
</defs>
</svg>
