<svg width="14" height="14" viewBox="0 0 14 14" fill="none" xmlns="http://www.w3.org/2000/svg">
<path d="M6.79004 2.42181C6.85831 2.25761 7.06981 2.23572 7.1748 2.35931L7.21289 2.42181L8.22949 4.86615L8.34668 5.1474L8.65137 5.17181L11.29 5.38373C11.4683 5.39806 11.5528 5.59416 11.4678 5.73138L11.4209 5.78607L9.41016 7.50873L9.17773 7.70697L9.24902 8.00482L9.86328 10.58C9.91035 10.7777 9.69542 10.9344 9.52148 10.829L7.26172 9.44818L7.00098 9.289L6.74023 9.44818L4.48145 10.829C4.3071 10.9354 4.09141 10.7782 4.13867 10.58L4.75293 8.00482L4.82324 7.70697L4.5918 7.50873L2.58105 5.78607C2.42673 5.65387 2.50825 5.4003 2.71191 5.38373L5.35156 5.17181L5.65527 5.1474L5.77246 4.86615L6.79004 2.42181Z" stroke="#818181"/>
</svg>
