<svg width="15" height="15" viewBox="0 0 15 15" fill="none" xmlns="http://www.w3.org/2000/svg">
<path d="M15 3.93001C15.0006 3.83131 14.9817 3.73346 14.9443 3.64208C14.907 3.5507 14.852 3.46759 14.7825 3.39751L11.6025 0.217513C11.5324 0.148001 11.4493 0.0930076 11.3579 0.0556841C11.2666 0.0183607 11.1687 -0.000558134 11.07 1.25357e-05C10.9713 -0.000558134 10.8735 0.0183607 10.7821 0.0556841C10.6907 0.0930076 10.6076 0.148001 10.5375 0.217513L8.41501 2.34001L0.217513 10.5375C0.148001 10.6076 0.0930076 10.6907 0.0556841 10.7821C0.0183607 10.8735 -0.000558134 10.9713 1.25357e-05 11.07V14.25C1.25357e-05 14.4489 0.0790301 14.6397 0.219682 14.7803C0.360335 14.921 0.5511 15 0.750013 15H3.93001C4.03496 15.0057 4.13993 14.9893 4.23813 14.9518C4.33632 14.9144 4.42555 14.8567 4.50001 14.7825L12.6525 6.58501L14.7825 4.50001C14.8509 4.42724 14.9066 4.34359 14.9475 4.25251C14.9547 4.19273 14.9547 4.13229 14.9475 4.07251C14.951 4.0376 14.951 4.00242 14.9475 3.96751L15 3.93001ZM3.62251 13.5H1.50001V11.3775L8.94751 3.93001L11.07 6.05251L3.62251 13.5ZM12.1275 4.99501L10.005 2.87251L11.07 1.81501L13.185 3.93001L12.1275 4.99501Z" fill="#919191"/>
</svg>
