<svg width="13" height="14" viewBox="0 0 13 14" fill="none" xmlns="http://www.w3.org/2000/svg">
<path d="M11.0034 0.649902H2.00343C1.17468 0.649902 0.483928 1.3324 0.688678 2.1349C0.906744 2.98528 1.30831 3.77762 1.86519 4.45629C2.42206 5.13495 3.12074 5.6835 3.91218 6.0634C4.52943 6.3589 5.00343 6.9394 5.00343 7.6234V12.1864C5.0035 12.3142 5.03622 12.4399 5.09849 12.5514C5.16075 12.663 5.25051 12.7569 5.35922 12.824C5.46794 12.8912 5.59202 12.9295 5.71968 12.9352C5.84735 12.941 5.97436 12.914 6.08868 12.8569L7.58868 12.1069C7.71324 12.0447 7.81801 11.949 7.89126 11.8305C7.96451 11.7121 8.00335 11.5756 8.00343 11.4364V7.6234C8.00343 6.9394 8.47743 6.3589 9.09393 6.0634C9.88564 5.68367 10.5846 5.1352 11.1418 4.45653C11.6989 3.77785 12.1007 2.98542 12.3189 2.1349C12.5222 1.3324 11.8307 0.649902 11.0034 0.649902Z" stroke="#474747" stroke-width="1.3"/>
</svg>
