<svg width="17" height="15" viewBox="0 0 17 15" fill="none" xmlns="http://www.w3.org/2000/svg">
<path d="M2.64358 0.0996094H9.55958C10.0256 0.0996094 10.4116 0.0996093 10.7106 0.127609C11.0076 0.155609 11.3216 0.217609 11.5686 0.421609C11.9066 0.698609 12.0986 1.11461 12.1016 1.55061C12.1036 1.86661 11.9616 2.15061 11.8006 2.40861C11.6376 2.66861 11.4006 2.98161 11.1106 3.36261L8.52058 6.77661C8.27458 7.10061 8.19358 7.21061 8.13758 7.32761C8.08258 7.44173 8.04226 7.56236 8.01758 7.68661C7.99158 7.81661 7.98958 7.95661 7.98958 8.36861V12.6046C7.98958 12.8196 7.98958 13.0126 7.97658 13.1676C7.96258 13.3206 7.93058 13.5266 7.79958 13.7046C7.71679 13.8187 7.6099 13.9131 7.4865 13.9812C7.3631 14.0493 7.22622 14.0894 7.08558 14.0986C6.85858 14.1126 6.66658 14.0216 6.53358 13.9466C6.40058 13.8716 6.24358 13.7636 6.07258 13.6456L5.08858 12.9656L5.04658 12.9366C4.84658 12.7996 4.66658 12.6766 4.53258 12.5066C4.4151 12.3579 4.32688 12.1882 4.27258 12.0066C4.21258 11.7986 4.21258 11.5796 4.21258 11.3306V8.36961C4.21258 7.95761 4.21158 7.81661 4.18558 7.68761C4.1609 7.56336 4.12058 7.44273 4.06558 7.32861C4.00958 7.21161 3.92858 7.10161 3.68258 6.77761L1.12458 3.40761L1.11858 3.39761L1.09158 3.36361C0.848647 3.05541 0.618778 2.73713 0.402583 2.40961C0.241583 2.15261 0.0995834 1.86761 0.101583 1.55161C0.103583 1.11561 0.296583 0.699609 0.634583 0.421609C0.881583 0.218609 1.19458 0.156609 1.49258 0.128609C1.79158 0.0996092 2.17758 0.0996094 2.64358 0.0996094ZM2.52658 3.59961L4.47858 6.17161L4.50658 6.20861C4.71458 6.48261 4.86058 6.67361 4.96558 6.89061C5.05892 7.08261 5.12625 7.28394 5.16758 7.49461C5.21358 7.73061 5.21358 7.97361 5.21358 8.32261V11.2786C5.21358 11.6086 5.21758 11.6736 5.23358 11.7246C5.25092 11.7846 5.27825 11.8379 5.31558 11.8846C5.34558 11.9226 5.39058 11.9596 5.65658 12.1436L6.62258 12.8096C6.78958 12.9246 6.89958 12.9996 6.98258 13.0506C6.98958 12.9476 6.98958 12.8046 6.98958 12.5836V8.32261C6.98958 7.97261 6.98958 7.73061 7.03558 7.49461C7.07758 7.28394 7.14492 7.08261 7.23758 6.89061C7.34258 6.67361 7.48858 6.48261 7.69758 6.20761L7.72458 6.17161L9.67658 3.59961H2.52658ZM10.4346 2.59961C10.6706 2.28861 10.8376 2.06161 10.9526 1.87861C11.0926 1.65461 11.1026 1.57361 11.1016 1.55561C11.1019 1.48664 11.0869 1.41845 11.0579 1.35589C11.0289 1.29333 10.9864 1.23793 10.9336 1.19361C10.9286 1.18961 10.8716 1.14761 10.6176 1.12361C10.3706 1.09961 10.0316 1.09961 9.53358 1.09961H2.66958C2.17058 1.09961 1.83258 1.09961 1.58558 1.12361C1.33158 1.14761 1.27458 1.18961 1.26958 1.19361C1.21674 1.23793 1.17429 1.29333 1.14525 1.35589C1.11622 1.41845 1.10131 1.48664 1.10158 1.55561C1.10158 1.57361 1.11058 1.65561 1.25058 1.87861C1.36558 2.06161 1.53258 2.28861 1.76858 2.59961H10.4346ZM12.1016 5.59961C12.1016 5.467 12.1543 5.33982 12.248 5.24606C12.3418 5.15229 12.469 5.09961 12.6016 5.09961H15.6016C15.7342 5.09961 15.8614 5.15229 15.9551 5.24606C16.0489 5.33982 16.1016 5.467 16.1016 5.59961C16.1016 5.73222 16.0489 5.8594 15.9551 5.95316C15.8614 6.04693 15.7342 6.09961 15.6016 6.09961H12.6016C12.469 6.09961 12.3418 6.04693 12.248 5.95316C12.1543 5.8594 12.1016 5.73222 12.1016 5.59961ZM10.6016 8.09961C10.6016 7.967 10.6543 7.83982 10.748 7.74606C10.8418 7.65229 10.969 7.59961 11.1016 7.59961H15.6016C15.7342 7.59961 15.8614 7.65229 15.9551 7.74606C16.0489 7.83982 16.1016 7.967 16.1016 8.09961C16.1016 8.23222 16.0489 8.3594 15.9551 8.45316C15.8614 8.54693 15.7342 8.59961 15.6016 8.59961H11.1016C10.969 8.59961 10.8418 8.54693 10.748 8.45316C10.6543 8.3594 10.6016 8.23222 10.6016 8.09961ZM10.1016 10.5996C10.1016 10.467 10.1543 10.3398 10.248 10.2461C10.3418 10.1523 10.469 10.0996 10.6016 10.0996H15.6016C15.7342 10.0996 15.8614 10.1523 15.9551 10.2461C16.0489 10.3398 16.1016 10.467 16.1016 10.5996C16.1016 10.7322 16.0489 10.8594 15.9551 10.9532C15.8614 11.0469 15.7342 11.0996 15.6016 11.0996H10.6016C10.469 11.0996 10.3418 11.0469 10.248 10.9532C10.1543 10.8594 10.1016 10.7322 10.1016 10.5996ZM10.1016 13.0996C10.1016 12.967 10.1543 12.8398 10.248 12.7461C10.3418 12.6523 10.469 12.5996 10.6016 12.5996H13.1016C13.2342 12.5996 13.3614 12.6523 13.4551 12.7461C13.5489 12.8398 13.6016 12.967 13.6016 13.0996C13.6016 13.2322 13.5489 13.3594 13.4551 13.4532C13.3614 13.5469 13.2342 13.5996 13.1016 13.5996H10.6016C10.469 13.5996 10.3418 13.5469 10.248 13.4532C10.1543 13.3594 10.1016 13.2322 10.1016 13.0996Z" fill="black" stroke="black" stroke-width="0.2"/>
</svg>
