<svg width="23" height="23" viewBox="0 0 23 23" fill="none" xmlns="http://www.w3.org/2000/svg">
<g clip-path="url(#clip0_398_2462)">
<path d="M0.714844 15.5C2.33971 19.8791 6.55496 23 11.4996 23C16.4441 23 20.6594 19.8791 22.2843 15.5L11.4996 14.5L0.714844 15.5Z" fill="#FFDA44"/>
<path d="M11.4996 0C6.55496 0 2.33971 3.12081 0.714844 7.50002L11.4996 8.49998L22.2843 7.49998C20.6594 3.12081 16.4441 0 11.4996 0Z" fill="black"/>
<path d="M0.715291 7.5C0.253045 8.74582 0 10.0933 0 11.5C0 12.9067 0.253045 14.2541 0.715291 15.5H22.2848C22.747 14.2541 23 12.9067 23 11.5C23 10.0933 22.747 8.74582 22.2847 7.5H0.715291Z" fill="#D80027"/>
</g>
<defs>
<clipPath id="clip0_398_2462">
<rect width="23" height="23" fill="white"/>
</clipPath>
</defs>
</svg>
