<svg width="14" height="14" viewBox="0 0 14 14" fill="none" xmlns="http://www.w3.org/2000/svg">
<path d="M9.2255 6.86884L10.4047 8.04717L12.7613 5.6905C13.3865 5.06537 13.7377 4.2175 13.7377 3.33342C13.7377 2.44934 13.3865 1.60147 12.7613 0.976336C12.4518 0.666799 12.0843 0.421262 11.6799 0.253742C11.2755 0.0862215 10.842 0 10.4043 0C9.52017 0 8.67231 0.351198 8.04717 0.976336L5.6905 3.333L6.86884 4.51217L9.2255 2.15467C9.53813 1.84205 9.96214 1.66641 10.4043 1.66641C10.8464 1.66641 11.2704 1.84205 11.583 2.15467C11.8956 2.46729 12.0713 2.8913 12.0713 3.33342C12.0713 3.77554 11.8956 4.19955 11.583 4.51217L9.2255 6.86884ZM6.86884 9.22634L8.04717 10.4047L5.6905 12.7613C5.06537 13.3865 4.2175 13.7377 3.33342 13.7377C2.44934 13.7377 1.60147 13.3865 0.976336 12.7613C0.351198 12.1362 0 11.2883 0 10.4043C0 9.52017 0.351198 8.67231 0.976336 8.04717L3.333 5.6905L4.51217 6.86884L2.15467 9.22634C1.84216 9.53896 1.66663 9.96292 1.66671 10.405C1.66679 10.847 1.84246 11.2709 2.15509 11.5834C2.46771 11.8959 2.89167 12.0715 3.33371 12.0714C3.77575 12.0713 4.19966 11.8956 4.51217 11.583L6.86884 9.22634Z" fill="#888888"/>
<path d="M9.22639 5.69096C9.38275 5.53459 9.4706 5.32251 9.4706 5.10137C9.4706 4.88024 9.38275 4.66816 9.22639 4.51179C9.07002 4.35542 8.85794 4.26758 8.6368 4.26758C8.41567 4.26758 8.20359 4.35542 8.04722 4.51179L4.51222 8.04762C4.43263 8.1245 4.36914 8.21645 4.32547 8.31812C4.28179 8.41979 4.25881 8.52914 4.25784 8.63979C4.25688 8.75044 4.27797 8.86017 4.31987 8.96259C4.36177 9.065 4.42365 9.15804 4.50189 9.23629C4.58013 9.31453 4.67318 9.37641 4.77559 9.41831C4.878 9.46021 4.98774 9.4813 5.09839 9.48033C5.20904 9.47937 5.31839 9.45638 5.42006 9.41271C5.52173 9.36904 5.61368 9.30555 5.69055 9.22596L9.22639 5.69096Z" fill="#888888"/>
</svg>
