<svg width="20" height="20" viewBox="0 0 20 20" fill="none" xmlns="http://www.w3.org/2000/svg">
<path d="M4.16797 2.5H9.16797C9.83101 2.5 10.4669 2.76339 10.9357 3.23223C11.4046 3.70107 11.668 4.33696 11.668 5V8.33333H10.8346V5C10.8346 4.55797 10.659 4.13405 10.3465 3.82149C10.0339 3.50893 9.61 3.33333 9.16797 3.33333H4.16797C3.72594 3.33333 3.30202 3.50893 2.98946 3.82149C2.6769 4.13405 2.5013 4.55797 2.5013 5V15.8333C2.5013 16.2754 2.6769 16.6993 2.98946 17.0118C3.30202 17.3244 3.72594 17.5 4.16797 17.5H9.16797C9.61 17.5 10.0339 17.3244 10.3465 17.0118C10.659 16.6993 10.8346 16.2754 10.8346 15.8333V12.5H11.668V15.8333C11.668 16.4964 11.4046 17.1323 10.9357 17.6011C10.4669 18.0699 9.83101 18.3333 9.16797 18.3333H4.16797C3.50493 18.3333 2.86904 18.0699 2.4002 17.6011C1.93136 17.1323 1.66797 16.4964 1.66797 15.8333V5C1.66797 4.33696 1.93136 3.70107 2.4002 3.23223C2.86904 2.76339 3.50493 2.5 4.16797 2.5ZM6.66797 10H16.043L13.3346 7.29167L13.8846 6.66667L17.6346 10.4167L13.8846 14.1667L13.3346 13.5417L16.043 10.8333H6.66797V10Z" fill="#FA001A" stroke="#FA001A" stroke-width="0.5"/>
</svg>
