<svg width="927" height="759" viewBox="0 0 927 759" fill="none" xmlns="http://www.w3.org/2000/svg">
<g id="No Results">
<g id="circle">
<path id="Stroke 1" d="M30.4307 348.626V356.472" stroke="#C5F0F2" stroke-width="2.54659" stroke-linecap="round"/>
<g id="Group 8">
<path id="Stroke 2" d="M12.8086 352.876L19.2202 359.476" stroke="#C5F0F2" stroke-width="2.54659" stroke-linecap="round"/>
<path id="Stroke 4" d="M5.30859 370.446H14.3745" stroke="#C5F0F2" stroke-width="2.54659" stroke-linecap="round"/>
<path id="Stroke 6" d="M12.0732 388.328L18.4849 381.728" stroke="#C5F0F2" stroke-width="2.54659" stroke-linecap="round"/>
</g>
<path id="Stroke 9" d="M30.4307 390.473V382.627" stroke="#C5F0F2" stroke-width="2.54659" stroke-linecap="round"/>
<path id="Stroke 10" d="M43.5073 385.242L38.2764 380.011" stroke="#C5F0F2" stroke-width="2.54659" stroke-linecap="round"/>
<path id="Stroke 11" d="M53.9685 372.165H46.1221" stroke="#C5F0F2" stroke-width="2.54659" stroke-linecap="round"/>
<path id="Stroke 12" d="M48.7368 353.857L43.5059 359.088" stroke="#C5F0F2" stroke-width="2.54659" stroke-linecap="round"/>
<path id="Stroke 13" d="M451.521 6V11.2309" stroke="#C5F0F2" stroke-width="2.54659" stroke-linecap="round"/>
<path id="Stroke 15" d="M435.829 21.6928H441.06" stroke="#C5F0F2" stroke-width="2.54659" stroke-linecap="round"/>
<path id="Stroke 16" d="M451.521 37.3855V32.1546" stroke="#C5F0F2" stroke-width="2.54659" stroke-linecap="round"/>
<path id="Stroke 17" d="M464.597 21.6928H459.366" stroke="#C5F0F2" stroke-width="2.54659" stroke-linecap="round"/>
<path id="Stroke 18" d="M148.125 225.699V233.545" stroke="#C5F0F2" stroke-width="2.54659" stroke-linecap="round"/>
<path id="Stroke 19" d="M124.588 249.238H132.434" stroke="#C5F0F2" stroke-width="2.54659" stroke-linecap="round"/>
<path id="Stroke 20" d="M148.125 270.162V262.316" stroke="#C5F0F2" stroke-width="2.54659" stroke-linecap="round"/>
<path id="Stroke 21" d="M169.052 249.238H161.206" stroke="#C5F0F2" stroke-width="2.54659" stroke-linecap="round"/>
<g id="Group 42">
<path id="Stroke 22" d="M711.114 510.887C717.364 510.887 722.433 515.958 722.433 522.21C722.433 528.464 717.364 533.532 711.114 533.532C704.863 533.532 699.794 528.464 699.794 522.21" stroke="#C5F0F2" stroke-width="2.54659" stroke-linecap="round"/>
<path id="Fill 26" fill-rule="evenodd" clip-rule="evenodd" d="M762.917 408.163C769.638 406.066 779.941 397.846 782.326 389.002C784.488 396.82 793.554 406.066 801.734 406.766C792.526 410.026 783.722 419.712 782.326 427.321C781.375 419.566 769.199 409.294 762.917 408.163Z" fill="#EBECEE"/>
<path id="Fill 28" fill-rule="evenodd" clip-rule="evenodd" d="M72.9873 507.399C76.349 506.351 81.4982 502.242 82.6905 497.82C83.7719 501.727 88.3038 506.351 92.3938 506.702C87.7908 508.33 83.39 513.174 82.6905 516.978C82.2154 513.1 76.127 507.963 72.9873 507.399Z" fill="#EBECEE"/>
<path id="Fill 30" fill-rule="evenodd" clip-rule="evenodd" d="M135.372 143.566C135.372 148.417 131.442 152.346 126.595 152.346C121.745 152.346 117.817 148.417 117.817 143.566C117.817 138.717 121.745 134.786 126.595 134.786C131.442 134.786 135.372 138.717 135.372 143.566Z" fill="#D1D8DF"/>
<path id="Fill 32" fill-rule="evenodd" clip-rule="evenodd" d="M721.484 167.14C721.484 175.245 714.914 181.815 706.814 181.815C698.71 181.815 692.142 175.245 692.142 167.14C692.142 159.036 698.71 152.466 706.814 152.466C714.914 152.466 721.484 159.036 721.484 167.14Z" fill="#EBECEE"/>
<path id="Fill 34" fill-rule="evenodd" clip-rule="evenodd" d="M924.693 127.383C924.693 133.813 919.484 139.023 913.058 139.023C906.63 139.023 901.421 133.813 901.421 127.383C901.421 120.953 906.63 115.743 913.058 115.743C919.484 115.743 924.693 120.953 924.693 127.383Z" fill="#EBECEE"/>
<path id="Stroke 36" fill-rule="evenodd" clip-rule="evenodd" d="M299.413 671.028C299.413 675.081 296.129 678.366 292.076 678.366C288.026 678.366 284.742 675.081 284.742 671.028C284.742 666.975 288.026 663.69 292.076 663.69C296.129 663.69 299.413 666.975 299.413 671.028Z" stroke="#C5F0F2" stroke-width="2.54659" stroke-linecap="round"/>
<path id="Stroke 38" fill-rule="evenodd" clip-rule="evenodd" d="M295.049 87.1624C295.049 92.0131 291.119 95.942 286.271 95.942C281.424 95.942 277.494 92.0131 277.494 87.1624C277.494 82.314 281.424 78.3828 286.271 78.3828C291.119 78.3828 295.049 82.314 295.049 87.1624Z" stroke="#C5F0F2" stroke-width="2.54659" stroke-linecap="round"/>
<path id="Stroke 40" fill-rule="evenodd" clip-rule="evenodd" d="M518.941 752.287C513.332 754.421 507.055 751.603 504.921 745.995C502.787 740.384 505.603 734.103 511.214 731.971C516.82 729.837 523.098 732.653 525.231 738.263C527.367 743.874 524.55 750.152 518.941 752.287Z" stroke="#C5F0F2" stroke-width="2.54659" stroke-linecap="round"/>
</g>
</g>
<g id="search">
<g id="documents">
<path id="Fill 1" fill-rule="evenodd" clip-rule="evenodd" d="M515.596 544.786H301.115C286.019 544.786 273.662 532.392 273.662 517.245V211.386C273.662 196.239 286.019 183.852 301.115 183.852H515.596C530.698 183.852 543.055 196.239 543.055 211.386V517.245C543.055 532.392 530.698 544.786 515.596 544.786Z" fill="#37DEA1" fill-opacity="0.51"/>
<path id="Fill 3" fill-rule="evenodd" clip-rule="evenodd" d="M497.285 557.863H282.805C267.709 557.863 255.352 545.469 255.352 530.322V224.463C255.352 209.316 267.709 196.929 282.805 196.929H497.285C512.387 196.929 524.744 209.316 524.744 224.463V530.322C524.744 545.469 512.387 557.863 497.285 557.863Z" fill="#C5F0F2"/>
<path id="Fill 5" fill-rule="evenodd" clip-rule="evenodd" d="M479.48 568.187H264.557C249.429 568.187 237.047 555.845 237.047 540.76V236.167C237.047 221.083 249.429 208.747 264.557 208.747H479.48C494.614 208.747 506.997 221.083 506.997 236.167V540.76C506.997 555.845 494.614 568.187 479.48 568.187Z" fill="#37DEA1" fill-opacity="0.51"/>
<g id="Fill 8">
<path fill-rule="evenodd" clip-rule="evenodd" d="M479.48 568.187H264.557C249.429 568.187 237.047 555.845 237.047 540.76V236.167C237.047 221.083 249.429 208.747 264.557 208.747H479.48C494.614 208.747 506.997 221.083 506.997 236.167V540.76C506.997 555.845 494.614 568.187 479.48 568.187Z" fill="white"/>
<path d="M479.48 568.187H264.557C249.429 568.187 237.047 555.845 237.047 540.76V236.167C237.047 221.083 249.429 208.747 264.557 208.747H479.48C494.614 208.747 506.997 221.083 506.997 236.167V540.76C506.997 555.845 494.614 568.187 479.48 568.187" stroke="#C5F0F2" stroke-width="0.871822"/>
</g>
<path id="Fill 11" fill-rule="evenodd" clip-rule="evenodd" d="M448.499 301.547H289.752C285.219 301.547 281.508 298.017 281.508 293.704C281.508 289.385 285.219 285.855 289.752 285.855H448.499C453.033 285.855 456.744 289.385 456.744 293.704C456.744 298.017 453.033 301.547 448.499 301.547Z" fill="#37DEA1" fill-opacity="0.51"/>
<path id="Fill 13" fill-rule="evenodd" clip-rule="evenodd" d="M448.499 348.626H289.752C285.219 348.626 281.508 345.095 281.508 340.782C281.508 336.464 285.219 332.933 289.752 332.933H448.499C453.033 332.933 456.744 336.464 456.744 340.782C456.744 345.095 453.033 348.626 448.499 348.626Z" fill="#37DEA1" fill-opacity="0.51"/>
<path id="Fill 15" fill-rule="evenodd" clip-rule="evenodd" d="M448.499 395.704H289.752C285.219 395.704 281.508 392.174 281.508 387.861C281.508 383.548 285.219 380.011 289.752 380.011H448.499C453.033 380.011 456.744 383.548 456.744 387.861C456.744 392.174 453.033 395.704 448.499 395.704Z" fill="#37DEA1" fill-opacity="0.51"/>
<path id="Fill 17" fill-rule="evenodd" clip-rule="evenodd" d="M448.499 442.783H289.752C285.219 442.783 281.508 439.252 281.508 434.939C281.508 430.62 285.219 427.09 289.752 427.09H448.499C453.033 427.09 456.744 430.62 456.744 434.939C456.744 439.252 453.033 442.783 448.499 442.783Z" fill="#37DEA1" fill-opacity="0.51"/>
<path id="Fill 19" fill-rule="evenodd" clip-rule="evenodd" d="M372.616 489.861H289.788C285.235 489.861 281.508 486.33 281.508 482.017C281.508 477.699 285.235 474.168 289.788 474.168H372.616C377.169 474.168 380.895 477.699 380.895 482.017C380.895 486.33 377.169 489.861 372.616 489.861Z" fill="#37DEA1" fill-opacity="0.51"/>
</g>
<g id="search_2">
<path id="Fill 21" fill-rule="evenodd" clip-rule="evenodd" d="M539.801 429.017C508.058 460.754 458.915 464.335 423.238 439.831C418.679 436.643 414.339 433.063 410.292 429.017C408.209 426.94 406.245 424.797 404.395 422.541C400.694 418.036 397.453 413.231 394.797 408.266C390.117 399.881 386.936 390.983 385.199 381.786C379.594 352.943 387.974 321.898 410.292 299.59C432.663 277.216 463.714 268.891 492.562 274.441C501.754 276.231 510.66 279.412 519.047 284.037C524.019 286.753 528.758 289.994 533.271 293.694C535.521 295.537 537.664 297.507 539.741 299.59C543.794 303.636 547.429 307.969 550.557 312.534C575.071 348.198 571.484 397.339 539.801 429.017Z" fill="white" fill-opacity="0.1"/>
<path id="Fill 23" fill-rule="evenodd" clip-rule="evenodd" d="M530.921 422.766C497.896 455.796 444.378 455.79 411.347 422.766C378.36 389.778 378.36 336.253 411.39 303.229C444.378 270.241 497.896 270.241 530.884 303.229C563.908 336.253 563.908 389.778 530.921 422.766ZM547.87 286.261C505.48 243.872 436.789 243.872 394.399 286.261C352.015 328.645 351.978 397.379 394.362 439.769C432.942 478.336 493.411 481.815 535.942 450.148C540.096 447.051 544.096 443.579 547.913 439.769C551.723 435.953 555.195 431.952 558.286 427.798C589.952 385.261 586.443 324.835 547.87 286.261Z" fill="#47D1D6" fill-opacity="0.78"/>
<path id="Fill 25" fill-rule="evenodd" clip-rule="evenodd" d="M714.69 599.558L712.911 601.337C701.137 613.117 681.857 613.117 670.077 601.337L561.366 492.626L605.979 448.013L714.69 556.725C726.47 568.504 726.47 587.778 714.69 599.558Z" fill="url(#paint0_linear_403_721)"/>
<path id="Fill 27" fill-rule="evenodd" clip-rule="evenodd" d="M560.626 424.474L592.751 456.599L569.945 479.399L537.826 447.274C542.065 444.114 546.141 440.571 550.041 436.683C553.929 432.795 557.472 428.713 560.626 424.474Z" fill="#E0E2EE"/>
<path id="Fill 29" fill-rule="evenodd" clip-rule="evenodd" d="M713.062 555.387L668.733 599.71L660.753 591.724L705.076 547.401L713.062 555.387Z" fill="#EF545F"/>
<path id="Fill 31" fill-rule="evenodd" clip-rule="evenodd" d="M608.446 449.548L562.903 495.092L556.137 488.326L601.679 442.782L608.446 449.548Z" fill="url(#paint1_linear_403_721)"/>
<path id="Fill 33" fill-rule="evenodd" clip-rule="evenodd" d="M509.057 291.867L397.368 403.551C393.162 396.012 390.302 388.013 388.746 379.744L485.25 283.239C493.513 284.855 501.519 287.708 509.057 291.867Z" fill="white" fill-opacity="0.5"/>
<path id="Fill 35" fill-rule="evenodd" clip-rule="evenodd" d="M545.673 318.413L424.925 432.321C420.601 429.474 416.485 426.27 412.647 422.649C410.671 420.785 408.802 418.873 407.054 416.855L529.273 301.547C531.413 303.203 533.446 304.966 535.415 306.83C539.253 310.451 542.706 314.327 545.673 318.413Z" fill="white" fill-opacity="0.5"/>
</g>
</g>
</g>
<defs>
<linearGradient id="paint0_linear_403_721" x1="642.446" y1="366.934" x2="480.287" y2="529.093" gradientUnits="userSpaceOnUse">
<stop stop-color="#64DBDF"/>
<stop offset="1" stop-color="#C5F0F2"/>
</linearGradient>
<linearGradient id="paint1_linear_403_721" x1="582.291" y1="416.628" x2="529.982" y2="468.937" gradientUnits="userSpaceOnUse">
<stop stop-color="#FF404E"/>
<stop offset="1" stop-color="#FF62A5"/>
</linearGradient>
</defs>
</svg>
