<svg width="18" height="18" viewBox="0 0 18 18" fill="none" xmlns="http://www.w3.org/2000/svg">
<path d="M9 16.875C4.6575 16.875 1.125 13.3425 1.125 9C1.125 4.6575 4.6575 1.125 9 1.125C13.3425 1.125 16.875 4.6575 16.875 9C16.875 13.3425 13.3425 16.875 9 16.875ZM9 2.25C5.27625 2.25 2.25 5.27625 2.25 9C2.25 12.7238 5.27625 15.75 9 15.75C12.7238 15.75 15.75 12.7238 15.75 9C15.75 5.27625 12.7238 2.25 9 2.25Z" fill="#585858"/>
<path d="M9 12.9375C8.685 12.9375 8.4375 12.69 8.4375 12.375V5.625C8.4375 5.31 8.685 5.0625 9 5.0625C9.315 5.0625 9.5625 5.31 9.5625 5.625V12.375C9.5625 12.69 9.315 12.9375 9 12.9375Z" fill="#585858"/>
<path d="M12.375 9.5625H5.625C5.31 9.5625 5.0625 9.315 5.0625 9C5.0625 8.685 5.31 8.4375 5.625 8.4375H12.375C12.69 8.4375 12.9375 8.685 12.9375 9C12.9375 9.315 12.69 9.5625 12.375 9.5625Z" fill="#585858"/>
</svg>
