<svg width="23" height="23" viewBox="0 0 23 23" fill="none" xmlns="http://www.w3.org/2000/svg">
<g clip-path="url(#clip0_398_2473)">
<path d="M11.5 23C17.8513 23 23 17.8513 23 11.5C23 5.14873 17.8513 0 11.5 0C5.14873 0 0 5.14873 0 11.5C0 17.8513 5.14873 23 11.5 23Z" fill="#F0F0F0"/>
<path d="M6.5 15.5L7.50001 22.2848C8.74578 22.7471 10.0933 23 11.5 23C16.4445 23 20.6598 19.8792 22.2846 15.5H6.5Z" fill="black"/>
<path d="M6.5 7.50002L7.50001 0.715201C8.74578 0.25291 10.0933 0 11.5 0C16.4445 0 20.6598 3.12081 22.2846 7.50002H6.5Z" fill="#6DA544"/>
<path d="M0 11.4996C0 16.4441 3.12086 20.6594 7.50002 22.2843V0.714844C3.12086 2.33971 0 6.55496 0 11.4996Z" fill="#A2001D"/>
</g>
<defs>
<clipPath id="clip0_398_2473">
<rect width="23" height="23" fill="white"/>
</clipPath>
</defs>
</svg>
