<svg width="25" height="18" viewBox="0 0 25 18" fill="none" xmlns="http://www.w3.org/2000/svg">
<path d="M0.699219 11.7896C0.699219 12.479 0.835015 13.1617 1.09885 13.7987C1.36269 14.4356 1.7494 15.0144 2.23691 15.5019C3.22147 16.4865 4.55683 17.0396 5.94922 17.0396H19.9492C20.9828 17.0415 21.9787 16.6513 22.7359 15.9477C23.4932 15.2442 23.9554 14.2796 24.0294 13.2486C24.1034 12.2177 23.7837 11.197 23.1347 10.3925C22.4858 9.588 21.5558 9.05956 20.5326 8.91376C20.5439 6.92898 19.8321 5.00799 18.5302 3.50987C17.2282 2.01174 15.4252 1.03904 13.4583 0.773585C11.4913 0.50813 9.49496 0.968091 7.84245 2.06749C6.18994 3.16689 4.99437 4.83047 4.47922 6.74726C3.38833 7.06543 2.43012 7.72896 1.74852 8.63819C1.06692 9.54742 0.698714 10.6532 0.699219 11.7896Z" stroke="black" stroke-width="1.4" stroke-linejoin="round"/>
<path d="M10.0312 10.0397L12.3646 12.373M12.3646 12.373L14.6979 10.0397M12.3646 12.373V5.37305" stroke="black" stroke-width="1.5" stroke-linecap="round" stroke-linejoin="round"/>
</svg>
