<svg width="20" height="20" viewBox="0 0 20 20" fill="none" xmlns="http://www.w3.org/2000/svg">
<path d="M7.50521 14.1667C7.50521 14.6087 7.32961 15.0326 7.01705 15.3452C6.70449 15.6577 6.28057 15.8333 5.83854 15.8333C5.39651 15.8333 4.97259 15.6577 4.66003 15.3452C4.34747 15.0326 4.17188 14.6087 4.17188 14.1667C4.17188 13.7246 4.34747 13.3007 4.66003 12.9882C4.97259 12.6756 5.39651 12.5 5.83854 12.5C6.28057 12.5 6.70449 12.6756 7.01705 12.9882C7.32961 13.3007 7.50521 13.7246 7.50521 14.1667ZM15.8385 14.1667C15.8385 14.6087 15.6629 15.0326 15.3504 15.3452C15.0378 15.6577 14.6139 15.8333 14.1719 15.8333C13.7298 15.8333 13.3059 15.6577 12.9934 15.3452C12.6808 15.0326 12.5052 14.6087 12.5052 14.1667C12.5052 13.7246 12.6808 13.3007 12.9934 12.9882C13.3059 12.6756 13.7298 12.5 14.1719 12.5C14.6139 12.5 15.0378 12.6756 15.3504 12.9882C15.6629 13.3007 15.8385 13.7246 15.8385 14.1667Z" stroke="black" stroke-width="1.2"/>
<path d="M1.67057 8.33366H15.0039M1.67057 8.33366C1.67057 8.98366 1.65391 10.867 1.67391 12.717C1.70391 13.317 1.80391 13.817 4.17224 14.167M1.67057 8.33366C1.85057 6.88366 2.63307 5.16699 3.03307 4.51699M7.50391 8.33366V4.16699M12.4956 14.167H7.49974M1.68391 4.16699H10.1981C10.1981 4.16699 10.6481 4.16699 11.0481 4.20699C11.7972 4.27699 12.4264 4.61699 13.0564 5.46699C13.7231 6.36699 14.2356 7.50699 14.9147 8.11699C16.0439 9.13033 18.1922 8.81699 18.3122 10.967C18.3422 12.067 18.3422 13.267 18.2922 13.467C18.2122 14.0562 17.7581 14.152 17.1931 14.167C16.7031 14.1803 16.1122 14.1437 15.8239 14.167" stroke="black" stroke-width="1.3" stroke-linecap="round"/>
</svg>
