<svg width="16" height="16" viewBox="0 0 16 16" fill="none" xmlns="http://www.w3.org/2000/svg">
<path d="M11.832 6C13.2127 6 14.332 4.88071 14.332 3.5C14.332 2.11929 13.2127 1 11.832 1C10.4513 1 9.33203 2.11929 9.33203 3.5C9.33203 4.88071 10.4513 6 11.832 6Z" stroke="#656565" stroke-width="2" stroke-linecap="round" stroke-linejoin="round"/>
<path d="M3.5 14.3335C4.88071 14.3335 6 13.2142 6 11.8335C6 10.4528 4.88071 9.3335 3.5 9.3335C2.11929 9.3335 1 10.4528 1 11.8335C1 13.2142 2.11929 14.3335 3.5 14.3335Z" stroke="#656565" stroke-width="2" stroke-linecap="round" stroke-linejoin="round"/>
<path d="M9.33333 9.33333H14.3333V13.5C14.3333 13.721 14.2455 13.933 14.0893 14.0893C13.933 14.2455 13.721 14.3333 13.5 14.3333H10.1667C9.94565 14.3333 9.73369 14.2455 9.57741 14.0893C9.42113 13.933 9.33333 13.721 9.33333 13.5V9.33333ZM1 1H6V5.16667C6 5.38768 5.9122 5.59964 5.75592 5.75592C5.59964 5.9122 5.38768 6 5.16667 6H1.83333C1.61232 6 1.40036 5.9122 1.24408 5.75592C1.0878 5.59964 1 5.38768 1 5.16667V1Z" stroke="#656565" stroke-width="2" stroke-linecap="round" stroke-linejoin="round"/>
</svg>
