<svg width="17" height="19" viewBox="0 0 17 19" fill="none" xmlns="http://www.w3.org/2000/svg">
<path d="M8.25 2.8335V4.0835M8.25 4.0835V5.3335M8.25 4.0835H9.5M8.25 4.0835H7" stroke="#656565" stroke-width="1.5" stroke-linecap="round"/>
<path d="M1.58333 17.4167V9.05833C1.58333 6.30083 1.58333 4.92167 2.4375 4.065C2.98083 3.52083 3.73417 3.3225 4.91667 3.25M14.9167 17.4167V9.05833C14.9167 6.30083 14.9167 4.92167 14.0625 4.065C13.5192 3.52083 12.7658 3.3225 11.5833 3.25M0.75 17.4167H15.75M5.405 1.23833C4.91667 1.72667 4.91667 2.51167 4.91667 4.08333C4.91667 5.655 4.91667 6.44 5.405 6.92833C5.89333 7.41667 6.67833 7.41667 8.25 7.41667C9.82167 7.41667 10.6067 7.41667 11.095 6.92833C11.5833 6.44 11.5833 5.655 11.5833 4.08333C11.5833 2.51167 11.5833 1.72667 11.095 1.23833C10.6067 0.75 9.82167 0.75 8.25 0.75C6.67833 0.75 5.89333 0.75 5.405 1.23833Z" stroke="#656565" stroke-width="1.5" stroke-linecap="round" stroke-linejoin="round"/>
<path d="M6.16797 17.4167V15.3333C6.16797 14.5542 6.16797 14.165 6.33547 13.875C6.44517 13.685 6.60296 13.5272 6.79297 13.4175C7.08297 13.25 7.47214 13.25 8.2513 13.25C9.03047 13.25 9.41964 13.25 9.70964 13.4175C9.89964 13.5272 10.0574 13.685 10.1671 13.875C10.3346 14.165 10.3346 14.5542 10.3346 15.3333V17.4167" stroke="#656565" stroke-width="1.5" stroke-linecap="round"/>
<path d="M4.92547 9.9165H4.91797M8.2513 9.9165H8.2438M11.5855 9.9165H11.578" stroke="#656565" stroke-width="2" stroke-linecap="round" stroke-linejoin="round"/>
</svg>
