<svg width="17" height="19" viewBox="0 0 17 19" fill="none" xmlns="http://www.w3.org/2000/svg">
<path d="M11.7305 0.899902V2.56657M4.23047 17.5666V15.8999C4.23047 15.4579 4.40606 15.034 4.71862 14.7214C5.03118 14.4088 5.45511 14.2332 5.89714 14.2332H10.8971C11.3392 14.2332 11.7631 14.4088 12.0756 14.7214C12.3882 15.034 12.5638 15.4579 12.5638 15.8999V17.5666M5.0638 0.899902V2.56657" stroke="#656565" stroke-width="1.8" stroke-linecap="round" stroke-linejoin="round"/>
<path d="M8.39844 10.8999C9.77915 10.8999 10.8984 9.78061 10.8984 8.3999C10.8984 7.01919 9.77915 5.8999 8.39844 5.8999C7.01773 5.8999 5.89844 7.01919 5.89844 8.3999C5.89844 9.78061 7.01773 10.8999 8.39844 10.8999Z" stroke="#656565" stroke-width="1.8" stroke-linecap="round" stroke-linejoin="round"/>
<path d="M14.2318 2.56641H2.5651C1.64463 2.56641 0.898438 3.3126 0.898438 4.23307V15.8997C0.898438 16.8202 1.64463 17.5664 2.5651 17.5664H14.2318C15.1522 17.5664 15.8984 16.8202 15.8984 15.8997V4.23307C15.8984 3.3126 15.1522 2.56641 14.2318 2.56641Z" stroke="#656565" stroke-width="1.8" stroke-linecap="round" stroke-linejoin="round"/>
</svg>
