<svg width="15" height="19" viewBox="0 0 15 19" fill="none" xmlns="http://www.w3.org/2000/svg">
<path d="M10.6975 5.75L11.5458 2.30333C11.74 1.51417 11.1525 0.75 10.3525 0.75H4.48083C3.68083 0.75 3.09333 1.51417 3.2875 2.30333L4.13583 5.75M10.6975 5.75V7.41667C10.6975 9.2575 9.22917 10.75 7.41667 10.75C5.60417 10.75 4.13583 9.2575 4.13583 7.41667V5.75M10.6975 5.75H4.13583M7.41667 2.41667V4.08333M8.25 3.25H6.58333M0.75 17.4167V16.5833C0.75 15.0258 0.75 14.2467 1.085 13.6667C1.30441 13.2866 1.61998 12.9711 2 12.7517C2.58 12.4167 3.35833 12.4167 4.91667 12.4167L7.41667 15.75L9.91667 12.4167C11.475 12.4167 12.2533 12.4167 12.8333 12.7517C13.2133 12.9711 13.5289 13.2866 13.7483 13.6667C14.0833 14.2467 14.0833 15.0258 14.0833 16.5833V17.4167C10.1944 17.4167 2.08333 17.4167 0.75 17.4167Z" stroke="#656565" stroke-width="1.5" stroke-linecap="round" stroke-linejoin="round"/>
</svg>
