<svg width="19" height="19" viewBox="0 0 19 19" fill="none" xmlns="http://www.w3.org/2000/svg">
<path d="M1.58203 4.91667V14.0833C1.58203 15.655 1.58203 16.44 2.07036 16.9283C2.5587 17.4167 3.3437 17.4167 4.91536 17.4167H13.2487C14.8204 17.4167 15.6054 17.4167 16.0937 16.9283C16.582 16.44 16.582 15.655 16.582 14.0833V4.91667M13.2487 4.91667C13.2487 3.8116 12.8097 2.75179 12.0283 1.97039C11.2469 1.18899 10.1871 0.75 9.08203 0.75C7.97696 0.75 6.91715 1.18899 6.13575 1.97039C5.35435 2.75179 4.91536 3.8116 4.91536 4.91667" stroke="#656565" stroke-width="1.5" stroke-linecap="round" stroke-linejoin="round"/>
<path d="M10.75 17.4168V14.0835C10.75 13.6415 10.5744 13.2175 10.2618 12.905C9.94928 12.5924 9.52536 12.4168 9.08333 12.4168C8.64131 12.4168 8.21738 12.5924 7.90482 12.905C7.59226 13.2175 7.41667 13.6415 7.41667 14.0835V17.4168M6.58333 1.5835H2.81C2.55167 1.5835 2.28917 1.65183 2.08167 1.85766C1.46333 2.47016 1.10667 3.49016 0.75 4.91683H4.91667M11.5833 1.5835H15.3567C15.615 1.5835 15.8775 1.65183 16.085 1.85766C16.7033 2.47016 17.06 3.49016 17.4167 4.91683H13.25M4.08333 8.25016H4.5M4.08333 11.1668H4.5M13.6667 8.25016H14.0833M13.6667 11.1668H14.0833M7.83333 5.75016V7.00016M7.83333 7.00016V8.25016M7.83333 7.00016H10.3333M10.3333 5.75016V7.00016M10.3333 7.00016V8.25016" stroke="#656565" stroke-width="1.5" stroke-linecap="round" stroke-linejoin="round"/>
</svg>
