<svg width="18" height="18" viewBox="0 0 18 18" fill="none" xmlns="http://www.w3.org/2000/svg">
<path d="M12.9375 14.6201V2.53125C12.9369 2.30767 12.8477 2.09344 12.6897 1.93535C12.5316 1.77725 12.3173 1.68815 12.0938 1.6875H2.53125C2.30767 1.68815 2.09344 1.77725 1.93535 1.93535C1.77725 2.09344 1.68815 2.30767 1.6875 2.53125V14.9062C1.68861 15.2789 1.83713 15.6359 2.10061 15.8994C2.36409 16.1629 2.72113 16.3114 3.09375 16.3125H14.625" stroke="black" stroke-linejoin="round"/>
<path d="M14.625 16.3125C14.1774 16.3125 13.7482 16.1347 13.4318 15.8182C13.1153 15.5018 12.9375 15.0726 12.9375 14.625V4.5H15.4688C15.6925 4.5 15.9071 4.58889 16.0654 4.74713C16.2236 4.90536 16.3125 5.11997 16.3125 5.34375V14.625C16.3125 15.0726 16.1347 15.5018 15.8182 15.8182C15.5018 16.1347 15.0726 16.3125 14.625 16.3125Z" stroke="black" stroke-linejoin="round"/>
<path d="M8.4375 4.5H10.6875M8.4375 6.75H10.6875M3.9375 9H10.6875M3.9375 11.25H10.6875M3.9375 13.5H10.6875" stroke="black" stroke-linecap="round" stroke-linejoin="round"/>
<path d="M6.1875 7.3125H3.9375C3.78832 7.3125 3.64524 7.25324 3.53975 7.14775C3.43426 7.04226 3.375 6.89918 3.375 6.75V4.5C3.375 4.35082 3.43426 4.20774 3.53975 4.10225C3.64524 3.99676 3.78832 3.9375 3.9375 3.9375H6.1875C6.33668 3.9375 6.47976 3.99676 6.58525 4.10225C6.69074 4.20774 6.75 4.35082 6.75 4.5V6.75C6.75 6.89918 6.69074 7.04226 6.58525 7.14775C6.47976 7.25324 6.33668 7.3125 6.1875 7.3125Z" fill="black"/>
</svg>
