<svg width="17" height="17" viewBox="0 0 17 17" fill="none" xmlns="http://www.w3.org/2000/svg">
<path d="M8.50168 16C10.1375 15.9996 11.7283 15.4645 13.0317 14.4761C14.3351 13.4877 15.2796 12.1003 15.7214 10.5253C16.1631 8.95034 16.0778 7.2741 15.4785 5.75208C14.8791 4.23005 13.7986 2.9457 12.4016 2.09474C11.0046 1.24379 9.36769 0.872893 7.74033 1.03858C6.11296 1.20427 4.58439 1.89746 3.38754 3.0125C2.1907 4.12755 1.39122 5.60331 1.11093 7.2149C0.830643 8.82648 1.08492 10.4855 1.83502 11.9392L1.00168 16L5.06252 15.1667C6.09252 15.6992 7.26252 16 8.50168 16Z" stroke="#656565" stroke-width="2" stroke-linecap="round" stroke-linejoin="round"/>
<path d="M4.75 8.5H4.75833V8.50833H4.75V8.5ZM8.5 8.5H8.50833V8.50833H8.5V8.5ZM12.25 8.5H12.2583V8.50833H12.25V8.5Z" stroke="#656565" stroke-width="2.8" stroke-linejoin="round"/>
</svg>
