<svg width="15" height="15" viewBox="0 0 15 15" fill="none" xmlns="http://www.w3.org/2000/svg">
<path d="M5.83333 5.625L6.9375 5.08333C7.11806 5 7.30556 4.95833 7.5 4.95833C7.69444 4.95833 7.88195 5 8.0625 5.08333L9.16667 5.625V1.66667H5.83333V5.625ZM4.16667 11.6667C3.93056 11.6667 3.73278 11.5867 3.57333 11.4267C3.41389 11.2667 3.33389 11.0689 3.33333 10.8333C3.33278 10.5978 3.41278 10.4 3.57333 10.24C3.73389 10.08 3.93167 10 4.16667 10H6.66667C6.90278 10 7.10083 10.08 7.26083 10.24C7.42083 10.4 7.50056 10.5978 7.5 10.8333C7.49944 11.0689 7.41944 11.2669 7.26 11.4275C7.10056 11.5881 6.90278 11.6678 6.66667 11.6667H4.16667ZM1.66667 15C1.20833 15 0.816111 14.8369 0.49 14.5108C0.163889 14.1847 0.000555556 13.7922 0 13.3333V1.66667C0 1.20833 0.163333 0.816111 0.49 0.49C0.816667 0.163889 1.20889 0.000555556 1.66667 0H13.3333C13.7917 0 14.1842 0.163333 14.5108 0.49C14.8375 0.816667 15.0006 1.20889 15 1.66667V13.3333C15 13.7917 14.8369 14.1842 14.5108 14.5108C14.1847 14.8375 13.7922 15.0006 13.3333 15H1.66667ZM1.66667 13.3333H13.3333V1.66667H10.8333V6.97917C10.8333 7.29861 10.7014 7.53833 10.4375 7.69833C10.1736 7.85833 9.90278 7.86861 9.625 7.72917L7.5 6.66667L5.375 7.72917C5.09722 7.86806 4.82639 7.8575 4.5625 7.6975C4.29861 7.5375 4.16667 7.29833 4.16667 6.98V1.66667H1.66667V13.3333Z" fill="#656565"/>
</svg>
